<svg width="156" height="123" viewBox="0 0 156 123" fill="none" xmlns="http://www.w3.org/2000/svg">
<circle cx="94.02" cy="61.5" r="61.5" fill="#6EAEE3"/>
<path d="M3 59.04C1.64138 59.04 0.54 60.1414 0.54 61.5C0.54 62.8586 1.64138 63.96 3 63.96L3 59.04ZM108.059 63.2395C109.02 62.2788 109.02 60.7212 108.059 59.7605L92.4041 44.1052C91.4435 43.1445 89.8859 43.1445 88.9252 44.1052C87.9645 45.0659 87.9645 46.6235 88.9252 47.5841L102.841 61.5L88.9252 75.4159C87.9645 76.3766 87.9645 77.9341 88.9252 78.8948C89.8859 79.8555 91.4434 79.8555 92.4041 78.8948L108.059 63.2395ZM3 63.96L106.32 63.96L106.32 59.04L3 59.04L3 63.96Z" fill="white"/>
</svg>
